<svg width="1440" height="4203" viewBox="0 0 1440 4203" fill="none" xmlns="http://www.w3.org/2000/svg">
<rect width="1440" height="4203" fill="#1E1E1E"/>
<g clip-path="url(#clip0_0_1)">
<rect width="1440" height="4203" fill="white"/>
<rect x="62" y="114" width="1316" height="314" fill="#E7CECE"/>
<rect x="62" y="628" width="1316" height="1032" fill="#F7D211"/>
<g clip-path="url(#clip1_0_1)">
<path d="M1098.71 1297.2H990.19C964.514 1297.2 943.7 1304.84 943.7 1314.26V1416.64C943.7 1426.06 964.514 1433.7 990.19 1433.7H1098.71C1124.39 1433.7 1145.2 1426.06 1145.2 1416.64V1314.26C1145.2 1304.84 1124.39 1297.2 1098.71 1297.2Z" fill="white" stroke="black" stroke-width="3" stroke-linecap="round" stroke-linejoin="round"/>
<path d="M1045.3 1432.8V1358.8" stroke="black" stroke-width="3" stroke-linecap="round" stroke-linejoin="round"/>
<path fill-rule="evenodd" clip-rule="evenodd" d="M1185.65 1381.53C1182.81 1385.51 1178.33 1388.57 1173.21 1390.03C1168.09 1391.5 1162.74 1391.26 1158.34 1389.36C1153.94 1387.46 1150.85 1384.05 1149.75 1379.9C1148.65 1375.74 1149.62 1371.17 1152.46 1367.2C1155.3 1363.22 1159.77 1360.16 1164.89 1358.69C1170.01 1357.23 1175.36 1357.47 1179.76 1359.37C1184.16 1361.27 1187.26 1364.67 1188.36 1368.83C1189.46 1372.99 1188.49 1377.55 1185.65 1381.53Z" fill="#C5A587" stroke="black" stroke-width="3.03432" stroke-linecap="round" stroke-linejoin="round"/>
<path d="M1127 1241.8C1163 1235.6 1180.6 1325 1187.7 1361.9C1191.1 1380.4 1118.4 1392.7 1115 1374.3C1107.9 1340.4 1090.6 1247.9 1127 1241.8Z" fill="#A3B2C9" stroke="black" stroke-width="3"/>
<path fill-rule="evenodd" clip-rule="evenodd" d="M914.554 1381.53C917.394 1385.51 921.867 1388.57 926.987 1390.03C932.107 1391.5 937.456 1391.26 941.856 1389.36C946.257 1387.46 949.348 1384.05 950.451 1379.9C951.555 1375.74 950.578 1371.17 947.738 1367.2C944.898 1363.22 940.425 1360.16 935.305 1358.69C930.185 1357.23 924.837 1357.47 920.436 1359.37C916.036 1361.27 912.944 1364.67 911.841 1368.83C910.738 1372.99 911.714 1377.55 914.554 1381.53Z" fill="#C5A587" stroke="black" stroke-width="3.03432" stroke-linecap="round" stroke-linejoin="round"/>
<path d="M967.7 1241.8C931.3 1235.6 913.8 1325 907 1361.9C903.3 1380.4 976 1392.7 979.4 1374.3C986.5 1340.4 1004.1 1247.9 967.7 1241.8Z" fill="#A3B2C9" stroke="black" stroke-width="3"/>
<path d="M930.9 1279C929.3 1282.9 927.7 1286.9 926.3 1291.1C944.8 1300.8 966.8 1308.2 991 1312.6C991.4 1308.1 991.6 1303.6 991.8 1299.2C968.8 1294.9 948.2 1287.9 930.9 1279Z" fill="white"/>
<path d="M1163.2 1279C1164.8 1282.9 1166.4 1286.9 1167.8 1291.1C1149.3 1300.8 1127.3 1308.2 1103.1 1312.6C1102.7 1308.1 1102.5 1303.6 1102.3 1299.2C1125.3 1294.9 1145.9 1287.9 1163.2 1279Z" fill="white"/>
<path fill-rule="evenodd" clip-rule="evenodd" d="M1047.8 1198.6C1047.5 1198.6 1047.2 1198.6 1046.9 1198.6C1046.6 1198.6 1046.6 1198.6 1046.3 1198.6C1046 1198.6 1045.6 1198.6 1045.3 1198.6C1022.2 1198.6 1001 1214 986.8 1229.4C956 1266.4 944.6 1312.6 943.4 1358.8C944.3 1371.2 941.8 1386.6 947.1 1395.8C965.2 1405.1 997.9 1408.1 1020.1 1411.2C1025.9 1411.2 1035.2 1411.2 1045.3 1411.2C1046.6 1411.2 1047.5 1411.2 1048.4 1411.2C1048.7 1411.2 1048.7 1411.2 1048.7 1411.2C1058.9 1411.2 1068.1 1411.2 1074 1411.2C1096.2 1408.1 1128.8 1405.1 1147.3 1395.8C1152.2 1386.6 1149.8 1371.2 1150.7 1358.8C1149.8 1312.6 1138.1 1266.4 1107.3 1229.4C1093.1 1214 1071.8 1198.6 1048.7 1198.6C1048.4 1198.6 1048.1 1198.6 1047.8 1198.6Z" fill="#A3B2C9" stroke="black" stroke-width="3" stroke-linecap="round" stroke-linejoin="round"/>
<path d="M1140.5 1435.9C1139.9 1420.5 1131.9 1408.1 1119 1405.1C1107 1402 1094 1402 1082 1405.1C1071.5 1408.1 1061 1414.3 1055.8 1423.5C1054.9 1426.6 1052.1 1429.7 1053.7 1435.9C1056.1 1435.9 1060.4 1435.9 1063.8 1435.9C1087.9 1439 1111.9 1439 1135.9 1435.9C1137.5 1435.9 1139 1435.9 1140.5 1435.9Z" fill="#E1EBCF" stroke="black" stroke-width="3"/>
<path d="M950.1 1435.9C950.7 1423.5 958.8 1408.1 971.1 1405.1C983.1 1402 995.4 1405.1 1007.1 1405.1C1017.6 1408.1 1027.8 1414.3 1032.7 1423.5C1033.6 1426.6 1036.4 1432.8 1034.9 1435.9C1032.4 1435.9 1028.4 1435.9 1025 1435.9C1001.6 1439 977.9 1439 954.8 1435.9C953.2 1435.9 951.7 1435.9 950.1 1435.9Z" fill="#E1EBCF" stroke="black" stroke-width="3"/>
<path d="M1163.6 1183.23C1163.6 1132.18 1109.81 1090.8 1043.45 1090.8C977.093 1090.8 923.3 1132.18 923.3 1183.23V1183.27C923.3 1234.32 977.093 1275.7 1043.45 1275.7C1109.81 1275.7 1163.6 1234.32 1163.6 1183.27V1183.23Z" fill="#C5AA8D" stroke="black" stroke-width="3" stroke-linecap="round" stroke-linejoin="round"/>
<path fill-rule="evenodd" clip-rule="evenodd" d="M1028.1 1041.5C1019.8 1041.5 1020.7 1044.6 1012.4 1047.7C1004.4 1047.7 1003.1 1044.6 995.4 1047.7C987.7 1050.7 989.6 1053.8 982.2 1056.9C974.5 1060 972.6 1056.9 965.8 1060C958.8 1066.2 961.2 1069.2 955.1 1072.3C948.6 1078.5 946.1 1075.4 940.3 1081.6C934.7 1084.6 938.1 1087.7 933.2 1093.9C928.3 1100 925.2 1097 921.2 1103.1C917.2 1109.3 920.9 1112.4 917.8 1118.5C914.7 1124.7 911 1124.7 908.8 1130.9C907 1137 911 1140.1 909.8 1146.3C908.5 1152.4 904.5 1152.4 904.5 1158.6C904.5 1167.8 908.5 1167.8 909.5 1174C910.1 1180.1 906.4 1183.2 908.2 1189.4C910.1 1195.6 913.8 1195.6 916.9 1201.7C919.6 1207.9 915.9 1211 919.6 1217.1C923.3 1223.3 926.7 1220.2 931.3 1226.4C936 1232.5 934.9 1231.6 940.4 1234.7C943.5 1240.8 945.7 1240.8 948.4 1240.8C938.3 1225.4 930.4 1211 930.4 1192.5C930.2 1180.7 931.9 1168.2 935 1158.6C940 1152.4 948.2 1144.9 950.4 1143.2C958.5 1140.1 960.6 1143.2 969.2 1140.1C977.9 1137 975.7 1133.9 984.9 1130.9C993.9 1127.8 995.1 1130.9 1004.4 1130.9C1013.9 1127.8 1013 1124.7 1022.5 1124.7C1032.1 1121.6 1032.1 1127.8 1041.9 1127.8C1051.5 1127.8 1051.5 1121.6 1061 1124.7C1070.6 1124.7 1071.1 1130.5 1078.9 1130.9C1088.2 1130.9 1089.7 1127.8 1098.6 1130.9C1107.6 1133.9 1105.4 1137 1114 1140.1C1122.4 1143.2 1124.5 1140.1 1132.5 1146.3C1132.5 1146.3 1132.5 1146.3 1132.8 1146.3C1135 1149.3 1138.7 1152.4 1143.6 1158.6C1147.6 1161.7 1152.2 1161.7 1156.3 1164.7C1158.7 1174.1 1159 1183 1159 1192.5C1159 1211 1151.2 1223.4 1141.3 1238.8C1146.8 1233.6 1148.9 1230.2 1150.9 1227.4C1155.8 1221.3 1161.2 1223.3 1165.2 1217.1C1169.2 1211 1165.2 1211 1168.3 1204.8C1171.3 1198.6 1175.4 1198.6 1177.2 1192.5C1179.4 1183.2 1175.4 1183.2 1176.6 1177.1C1177.5 1170.9 1181.5 1170.9 1181.8 1161.7C1181.8 1155.5 1177.8 1155.5 1176.9 1149.3C1176 1140.1 1180 1140.1 1178.1 1133.9C1176.3 1127.8 1172.3 1127.8 1169.5 1121.6C1166.7 1115.4 1170.4 1112.4 1166.7 1106.2C1162.7 1100 1159.3 1103.1 1154.7 1097C1150.1 1090.8 1153.5 1087.7 1147.9 1081.6C1142.4 1075.4 1139.6 1078.5 1133.5 1075.4C1127.3 1069.2 1130.1 1066.2 1123.3 1063.1C1116.2 1060 1114.4 1063.1 1107 1056.9C1099.9 1053.8 1101.7 1050.7 1094 1047.7C1086 1047.7 1085.1 1050.7 1076.8 1047.7C1068.8 1044.6 1069.7 1041.5 1061.4 1041.5C1053.3 1041.5 1053 1044.6 1044.7 1044.6C1036.3 1044 1035.1 1041.5 1028.1 1041.5Z" fill="#CB7841" stroke="black" stroke-width="3"/>
<path d="M1048.65 1379.07H995.787V1353.19C995.787 1348.35 998.375 1343.32 1003.92 1338.11C1009.1 1334.04 1014.64 1329.98 1019.82 1325.84C1025.36 1321.29 1028.32 1317.41 1028.32 1314.15C1028.32 1313.36 1028.32 1312.22 1028.32 1310.75C1028.69 1309.27 1028.69 1308.13 1028.69 1307.34C1028.69 1302.41 1026.47 1299.95 1022.04 1299.95C1017.97 1299.95 1016.12 1301.72 1016.12 1305.27V1324.65H995.787C995.787 1323.06 995.417 1320.73 995.048 1317.7C995.048 1314.54 995.048 1312.17 995.048 1310.6C995.048 1302.41 997.266 1296.65 1002.44 1293.3C1006.51 1290.53 1013.16 1289.16 1022.04 1289.16C1039.78 1289.16 1048.65 1294.67 1048.65 1305.72V1317.11C1048.65 1321.62 1045.7 1326.32 1040.15 1331.16C1034.98 1335.19 1029.8 1339.22 1024.62 1343.29C1018.71 1348.09 1016.12 1352.82 1016.12 1357.48V1368.87H1048.65V1379.07Z" fill="white"/>
<path d="M1093.02 1379.22H1071.95V1310.01C1071.95 1307.24 1071.58 1305.32 1070.84 1304.24C1069.73 1303.06 1067.88 1302.46 1065.29 1302.46H1060.85V1293C1063.81 1292.8 1067.88 1292.7 1072.31 1292.7L1077.12 1292.85H1077.49C1087.84 1292.85 1093.02 1299.16 1093.02 1311.78V1379.22Z" fill="white"/>
<path d="M977.2 1199.6C977.2 1184.1 990.2 1184.1 1003.7 1184.1" stroke="#0045FF" stroke-opacity="0.5662" stroke-width="14.8313" stroke-linecap="round" stroke-linejoin="round"/>
<path d="M1109.1 1199.6C1109.1 1187.2 1096.2 1187.2 1082.3 1187.2" stroke="#0045FF" stroke-opacity="0.5662" stroke-width="14.831" stroke-linecap="round" stroke-linejoin="round"/>
<path d="M999.7 1169.9L1015.9 1184.8H991.6" stroke="black" stroke-width="3" stroke-linecap="round" stroke-linejoin="round"/>
<path d="M1088 1169.8L1071.8 1184.8H1096.1" stroke="black" stroke-width="3" stroke-linecap="round" stroke-linejoin="round"/>
<path d="M1004.8 1198.5C991.9 1212.8 991.9 1238.4 1004.8 1249.8C1030.6 1238.4 1056.1 1238.4 1081.8 1249.8C1094.4 1238.4 1094.4 1212.8 1081.8 1198.5C1056.1 1212.8 1030.6 1212.8 1004.8 1198.5Z" fill="#BC7272" stroke="black" stroke-width="2.9999" stroke-linecap="round" stroke-linejoin="round"/>
</g>
<rect x="62" y="1866" width="1316" height="448" fill="#F7D211"/>
<rect x="62" y="2947" width="1316" height="175" fill="#F7D211"/>
<path d="M62.4728 3994.08C9.97282 3910.58 1378.47 4071.08 1378.47 4071.08L1378.47 4169.08H62.4728C62.4728 4169.08 114.973 4077.58 62.4728 3994.08Z" fill="#F7D211"/>
<path fill-rule="evenodd" clip-rule="evenodd" d="M720 707.94C619.089 707.94 395.54 709.041 201.443 731.437C6.86401 753.833 42.1104 725.196 36.3165 725.196C31.0054 725.196 35.3508 518.494 36.3165 474.07C36.3165 468.563 36.3165 465.626 36.3165 465.626V462.689C36.3165 462.689 45.0074 488.756 129.019 477.374C213.031 466.36 312.977 441.394 720 446.167C1127.02 441.394 1226.97 466.36 1310.98 477.374C1394.99 488.756 1403.68 462.689 1403.68 462.689V465.626C1403.68 465.626 1403.68 468.563 1403.68 474.07C1404.65 518.494 1408.99 725.196 1403.68 725.196C1397.89 725.196 1433.14 753.833 1238.56 731.437C1044.46 709.041 820.428 707.94 720 707.94Z" fill="url(#paint0_linear_0_1)"/>
<rect x="170" y="906" width="410" height="119" fill="#D91E1E"/>
<rect x="842" y="906" width="410" height="119" fill="#46D713"/>
<rect x="134" y="1977" width="298" height="140" fill="#F1D843"/>
<rect x="544" y="1986" width="427" height="211" fill="#F1D843"/>
<rect x="1056" y="2003" width="269" height="125" fill="#F1D843"/>
<rect x="82" y="3758" width="1276" height="86" rx="40" fill="url(#paint1_linear_0_1)"/>
<ellipse cx="245.5" cy="3448.5" rx="60.5" ry="62.5" fill="#17D91F"/>
<ellipse cx="1233.5" cy="3448.5" rx="60.5" ry="62.5" fill="#980606"/>
<path d="M527.309 1120.41C518.323 1126.75 547.782 1154.56 555.549 1158.97C542.773 1147.77 548.626 1139.24 542.195 1130.61C535.765 1121.98 536.294 1114.07 527.309 1120.41Z" fill="#FF0000"/>
<path d="M450.741 1222.37C407.412 1222.37 372.277 1240.93 371.794 1263.92H529.721C529.24 1240.93 494.073 1222.37 450.746 1222.37H450.741Z" fill="white"/>
<path d="M527.99 1138.33C527.99 1161.54 492.62 1180.36 448.992 1180.36C405.363 1180.36 369.995 1161.54 369.995 1138.33C369.995 1115.12 405.363 1096.31 448.992 1096.31C492.62 1096.31 527.99 1115.12 527.99 1138.33Z" fill="white"/>
<path d="M475.962 1103.84C477.18 1103.93 478.392 1104.14 479.655 1104.42C492.463 1107.31 503.406 1119.77 506.455 1134.93C507.35 1139.39 507.427 1146.17 506.612 1150.18C504.546 1160.36 498.568 1167.82 490.231 1170.66C486.817 1171.83 481.778 1172.14 478.14 1171.41C469.461 1169.68 460.845 1162.92 455.603 1153.71C453.053 1149.24 450.534 1141.92 450.552 1139.07C450.172 1137.02 450.13 1136.79 449.92 1133.82C449.599 1132.76 450.084 1127.15 451.088 1123.32C453.282 1114.99 458.427 1108.62 465.324 1105.68C468.819 1104.18 472.31 1103.57 475.962 1103.84L475.962 1103.84Z" fill="black"/>
<path d="M443.38 1068.55C426.838 1068.79 410.729 1073.15 397.958 1080.96C379.693 1092.13 367.607 1109.29 362.509 1131.37C362.275 1132.38 361.976 1133.78 361.814 1134.45C361.652 1135.13 361.321 1136.86 361.119 1138.29C360.917 1139.74 360.572 1142.12 360.331 1143.55C359.766 1146.94 359.762 1159.27 360.331 1162.34C362.073 1171.73 363.962 1178.58 367.97 1190.06C369.188 1193.55 369.471 1194.39 370.115 1196.52C370.295 1197.11 370.947 1199.19 371.537 1201.14C375.331 1213.68 375.663 1222.32 372.735 1230.5C370.592 1236.49 367.204 1241.09 360.519 1246.95C355.729 1251.16 350.318 1257.52 346.79 1263.93H379.048C379.891 1262.21 380.565 1260.41 381.321 1259.08C386.163 1250.56 391.072 1244.58 398.02 1238.71C407.163 1230.99 417.46 1226.35 429.743 1224.41C433.117 1223.87 443.674 1223.77 447.01 1224.27C465.193 1226.94 480.735 1235.5 493.16 1249.65C496.824 1253.82 500.123 1258.74 503.101 1263.93H571C568.711 1259.55 564.818 1254.07 560.12 1248.17C557.54 1244.93 554.116 1240.05 552.251 1238.1C546.328 1231.91 541.339 1228.92 537.752 1224.73C530.295 1218.66 531.182 1217.39 531.354 1208.85C534.457 1195.23 535.344 1169.83 534.457 1149.36C534.784 1143.39 534.415 1140.28 534.069 1137.13C532.843 1125.97 530.443 1119.28 525.483 1110.55C521.554 1103.63 516.609 1097.67 510.109 1091.96C502.841 1085.56 495.794 1081.12 486.342 1077.01C474.824 1072 463.863 1069.46 450.483 1068.69C448.109 1068.55 445.744 1068.52 443.38 1068.55L443.38 1068.55ZM421.288 1103.84C424.941 1103.57 428.432 1104.18 431.927 1105.68C438.815 1108.62 443.946 1114.99 446.131 1123.29C447.613 1129.81 447.1 1139.05 446.51 1140.61C445.719 1145.92 442.288 1153.54 438.46 1158.5C433.24 1165.27 425.911 1170.12 418.923 1171.42C412.689 1172.57 406.838 1171.44 401.814 1168.1C394.25 1163.08 390.074 1154.1 390.071 1142.92C390.069 1124.75 402.095 1107.91 417.565 1104.43C418.828 1104.14 420.072 1103.93 421.289 1103.84L421.288 1103.84Z" fill="black"/>
<path d="M450.767 1078.74C450.767 1078.74 446.335 1175.15 449.127 1215.67C464.535 1217.94 471.588 1221.02 486.941 1232.06C494.977 1237.84 509.886 1252.78 515.636 1263.93H558.943C554.909 1258.44 546.919 1247.82 544.997 1245.81C542.542 1243.25 539.221 1239.81 537.641 1238.16C532.623 1232.91 525.12 1225.45 522.079 1221.9C518.861 1219.1 519.184 1217.13 519.302 1213.36C519.591 1203.28 520.708 1163.84 521.607 1147.37C521.883 1142.31 521.9 1140.25 521.607 1137.57C520.568 1128.12 518.518 1121.59 514.314 1114.2C510.986 1108.34 506.817 1103.29 501.309 1098.44C495.15 1093.02 489.18 1089.26 481.17 1085.78C471.413 1081.54 450.772 1078.74 450.772 1078.74L450.767 1078.74Z" fill="#333333"/>
<path d="M481.565 1171.38C474.536 1170.08 467.161 1165.2 461.91 1158.4C458.06 1153.41 454.618 1145.75 453.822 1140.41C453.228 1138.84 452.702 1129.55 454.191 1122.99C456.389 1114.64 461.571 1108.22 468.498 1105.26C473.185 1103.26 477.84 1102.85 482.922 1104C518.855 1110.88 520.086 1178.02 481.564 1171.38H481.565Z" fill="black"/>
<path d="M442.656 1169.73L441.456 1170.85C439.068 1173.08 433.927 1174.6 426.018 1175.4C417.333 1176.29 406.288 1175.81 400.995 1174.33C398.379 1173.6 397.67 1173.72 397.044 1175.05C395.07 1179.25 399.197 1187.19 408.9 1197.87C415.053 1204.65 424.201 1212.79 429.926 1216.59C432.155 1218.07 434.872 1219.24 437.405 1219.81C439.466 1220.27 451.672 1220.18 454.555 1219.68C455.516 1219.52 457.306 1219.22 458.528 1219.01C465.173 1217.88 470.772 1215.04 480.583 1207.85C489.444 1201.36 500.311 1190.67 503.214 1185.59C505.337 1181.87 506.214 1176.27 504.939 1174.56C504.208 1173.57 503.901 1173.56 501.097 1174.35C498.377 1175.11 489.111 1175.88 482.832 1175.88C480.232 1175.88 476.036 1175.67 473.497 1175.4C466.105 1174.63 461.853 1173.29 459.359 1170.96L458.05 1169.73L442.656 1169.73ZM445.834 1172.19C447.759 1172.19 448.838 1174.4 448.092 1176.84C446.816 1181.02 443.723 1183.04 441.838 1180.93C439.771 1178.61 442.707 1172.19 445.834 1172.19V1172.19ZM453.147 1172.19C455.295 1172.19 457.874 1175.79 457.874 1178.78C457.874 1181.36 455.652 1182.55 453.551 1181.09C451.82 1179.89 450.297 1176.34 450.703 1174.43C450.977 1173.14 452.012 1172.19 453.147 1172.19Z" fill="#EECC00"/>
<path d="M430.899 1144.55C430.899 1152.22 424.418 1158.44 416.426 1158.44C408.432 1158.44 401.953 1152.22 401.953 1144.55C401.953 1136.87 408.432 1130.65 416.426 1130.65C424.418 1130.65 430.899 1136.87 430.899 1144.55Z" fill="black"/>
<path d="M427.512 1139.11C427.512 1142.47 424.671 1145.19 421.17 1145.19C417.667 1145.19 414.827 1142.47 414.827 1139.11C414.827 1135.74 417.667 1133.02 421.17 1133.02C424.671 1133.02 427.512 1135.74 427.512 1139.11Z" fill="white"/>
<path d="M448.285 1119.35L530.368 1148.69L526.422 1157.27L444.339 1127.92L448.285 1119.35Z" fill="black"/>
<path d="M442.122 1043.01C425.578 1043.25 409.471 1047.61 396.698 1055.42C378.434 1066.59 366.348 1083.75 361.249 1105.83C361.015 1106.84 360.718 1108.24 360.556 1108.92C360.392 1109.59 360.063 1111.32 359.861 1112.76C359.659 1114.2 359.311 1116.58 359.071 1118.02C358.507 1121.4 359.071 1136.8 359.071 1136.8L533.194 1123.82C533.194 1123.82 533.152 1114.75 532.805 1111.59C531.581 1100.43 529.184 1093.74 524.219 1085.01C520.298 1078.1 515.35 1072.14 508.851 1066.42C501.585 1060.02 494.534 1055.58 485.078 1051.47C473.571 1046.46 462.607 1043.92 449.221 1043.15C446.849 1043.02 444.481 1042.98 442.12 1043.01L442.122 1043.01Z" fill="#FF0000"/>
<path d="M528.679 1116.11C522.358 1124.59 560.13 1143 569.061 1145.07C552.982 1137.91 555.554 1128.19 546.412 1121.75C537.271 1115.3 535 1107.63 528.679 1116.11Z" fill="#FF0000"/>
<path d="M444.518 1051.66L448.445 1122.37L518.932 1117.69C518.932 1117.69 518.898 1110.27 518.615 1107.69C517.613 1098.58 515.654 1093.11 511.599 1085.97C508.389 1080.32 504.349 1075.45 499.04 1070.78C493.1 1065.56 487.343 1061.93 479.62 1058.57C470.211 1054.48 461.254 1052.4 450.321 1051.77C448.384 1051.66 444.519 1051.66 444.519 1051.66L444.518 1051.66Z" fill="#D40000"/>
<g opacity="0.81776" filter="url(#filter0_f_0_1)">
<path d="M476.913 1379C477.002 1381.62 474.628 1384.22 469.927 1386.64C465.227 1389.07 458.293 1391.27 449.525 1393.13C440.757 1394.99 430.328 1396.47 418.84 1397.47C407.351 1398.48 395.03 1399 382.586 1399C370.141 1399 357.82 1398.48 346.332 1397.47C334.843 1396.47 324.414 1394.99 315.647 1393.13C306.879 1391.27 299.945 1389.07 295.244 1386.64C290.544 1384.22 288.17 1381.62 288.258 1379C288.17 1376.38 290.544 1373.78 295.244 1371.35C299.945 1368.93 306.879 1366.72 315.647 1364.86C324.414 1363.01 334.843 1361.53 346.332 1360.52C357.82 1359.52 370.141 1359 382.586 1359C395.03 1359 407.351 1359.52 418.84 1360.52C430.328 1361.53 440.757 1363.01 449.525 1364.86C458.293 1366.72 465.227 1368.93 469.927 1371.35C474.628 1373.78 477.002 1376.38 476.913 1379Z" fill="#989898"/>
</g>
<path d="M192 1322.36C341.152 1321.16 342.596 1327.32 435.583 1316.94C448.264 1312.79 470.547 1321.69 494.218 1313.37" stroke="black" stroke-width="5" stroke-linecap="round" stroke-linejoin="round"/>
<path d="M401.163 1369.26C415.332 1357.27 416.642 1341.12 417.915 1330.48C419.188 1319.84 419.515 1308.1 413.894 1291.03C408.274 1273.96 385.046 1245.69 392.452 1228.84C399.857 1212 442.506 1218.18 443.379 1215.47C444.251 1212.75 424.5 1187.1 402.504 1185.38C380.508 1183.66 367.346 1188.01 355.598 1179.36C343.85 1170.71 339.923 1158.18 333.485 1145.26C327.047 1132.33 305.42 1126.11 292.611 1130.55C279.801 1134.98 272.073 1147.17 269.158 1160.64C266.242 1174.1 281.702 1196.52 274.518 1210.12C281.423 1205.75 257.524 1222.26 277.199 1265.62C284.234 1281.54 268.504 1318.98 276.529 1339.17C284.553 1359.36 308.1 1377.61 319.414 1381.3C330.727 1384.98 347.623 1384.97 363.46 1382.54C371.379 1381.33 370.979 1357.99 377.54 1355.73C384.1 1353.46 397.622 1372.26 401.164 1369.26C404.707 1366.27 401.163 1369.26 401.163 1369.26Z" fill="#232323" stroke="black" stroke-width="3" stroke-linecap="round" stroke-linejoin="round"/>
<path d="M333.759 1382.95C339.935 1383.84 355.652 1384.12 369.492 1381.44C376.412 1380.09 373.15 1357.91 378.177 1355.97C383.205 1354.03 396.523 1372.32 397.752 1371.54C398.981 1370.77 411.765 1352.89 412.997 1345.63C414.228 1338.38 419.153 1306.64 406.521 1281C393.888 1255.36 360.956 1205.67 328.791 1212.13C296.626 1218.59 293.368 1269.39 288.586 1295.71C283.804 1322.04 284.577 1347.53 294.617 1363.25C304.657 1378.97 327.584 1382.07 333.759 1382.95Z" fill="white" stroke="black" stroke-width="3" stroke-linecap="round" stroke-linejoin="round"/>
<path d="M441.868 1215.03C442.03 1214.25 440.409 1212.76 439.712 1212.42C436.96 1211.09 428.022 1210.4 425.686 1210.2C423.351 1209.99 416.998 1209.53 410.637 1210.68C404.276 1211.82 400.276 1212.2 394.593 1217.01C388.91 1221.81 388.139 1234.05 389.202 1234.73C390.264 1235.41 389.671 1230.03 391.543 1227.1C394.435 1222.57 399.52 1220.26 401.629 1219.12C403.738 1217.99 414.661 1215.58 422.575 1215.24C430.49 1214.9 441.705 1215.8 441.867 1215.03L441.868 1215.03Z" fill="#63AFA2"/>
<path d="M319.575 1200.26L301.817 1183.88C301.817 1183.88 298.322 1174.27 304.833 1171.18C311.343 1168.08 316.894 1176.52 316.894 1176.52L319.575 1200.26Z" fill="#FF7200" stroke="black" stroke-width="3" stroke-linecap="round" stroke-linejoin="round"/>
<path d="M291.822 1159.25C293.849 1161.27 295.187 1163.81 295.542 1166.32C295.898 1168.82 295.241 1171.09 293.717 1172.61C292.193 1174.13 289.926 1174.78 287.415 1174.43C284.904 1174.07 282.355 1172.74 280.328 1170.72C278.301 1168.69 276.963 1166.15 276.607 1163.64C276.252 1161.14 276.908 1158.88 278.433 1157.35C279.957 1155.83 282.224 1155.18 284.735 1155.53C287.246 1155.89 289.795 1157.22 291.822 1159.25Z" fill="white" stroke="black" stroke-width="2.81561"/>
<path d="M321.673 1152.28C321.673 1155.14 320.817 1157.88 319.293 1159.9C317.769 1161.93 315.701 1163.06 313.546 1163.06C311.39 1163.06 309.323 1161.93 307.799 1159.9C306.275 1157.88 305.418 1155.14 305.418 1152.28C305.418 1149.42 306.275 1146.67 307.799 1144.65C309.323 1142.63 311.39 1141.49 313.546 1141.49C315.701 1141.49 317.769 1142.63 319.293 1144.65C320.817 1146.67 321.673 1149.42 321.673 1152.28Z" fill="white" stroke="black" stroke-width="2.8156"/>
<path d="M396.641 1372.28C396.641 1372.28 422.648 1367.09 431.318 1365.43C439.988 1363.76 459.71 1368.68 459.21 1357.82C458.71 1346.96 439.724 1349.15 432.49 1350.21C425.257 1351.28 410.042 1358.57 410.042 1358.57L396.641 1372.28Z" fill="#A16C3B" stroke="black" stroke-width="3" stroke-linecap="round" stroke-linejoin="round"/>
<path d="M315.156 1162.69L318.722 1160L320.499 1152.68C320.499 1152.68 315.399 1152.33 313.963 1154.3C312.527 1156.28 315.156 1162.69 315.156 1162.69Z" fill="black" stroke="black"/>
<path d="M288.251 1174.85C288.251 1174.85 286.086 1168.64 288.083 1166.15C290.082 1163.67 295.288 1165.16 295.288 1165.16V1170.01L292.273 1173.85L289.09 1175.02L288.251 1174.85Z" fill="black" stroke="black"/>
<path d="M331.874 1383.67C331.874 1383.67 312.229 1385.37 305.693 1386.01C299.158 1386.64 285.965 1396.48 284.233 1385.86C282.501 1375.25 296.533 1372.45 301.925 1371.62C307.317 1370.78 314.483 1371.71 319.627 1373.89C324.772 1376.07 331.874 1383.67 331.874 1383.67L331.874 1383.67Z" fill="#A16C3B" stroke="black" stroke-width="2.5845" stroke-linecap="round" stroke-linejoin="round"/>
<path d="M279.254 1274.51C279.254 1274.51 303.403 1263.76 311.948 1267.89C320.494 1272.01 340.851 1285.86 340.851 1285.86L354.592 1294.84L349.854 1263.16C349.854 1263.16 350.804 1258.53 345.115 1248.03C339.427 1237.53 326.251 1233.35 315.264 1226.75C304.278 1220.15 286.69 1200.82 272.62 1209.73C258.551 1218.64 279.254 1274.51 279.254 1274.51Z" fill="#232323" stroke="black" stroke-width="3" stroke-linecap="round" stroke-linejoin="round"/>
<path d="M341.433 1280.73C341.825 1280.05 342.163 1277.78 340.833 1276.27C336.31 1271.14 324.844 1262.53 320.034 1260.68C315.226 1258.83 301.336 1255.75 293.527 1258.36C285.718 1260.97 279.955 1271.53 280.399 1272.02C280.843 1272.51 285.824 1265.39 290.589 1264.37C295.353 1263.34 309.109 1264.49 317.183 1267.96C325.258 1271.43 341.041 1281.42 341.432 1280.73L341.433 1280.73Z" fill="#63AFA2"/>
<g opacity="0.81776" filter="url(#filter1_f_0_1)">
<path d="M493.332 1404.98C492.349 1407.5 489.891 1409.7 486.099 1411.44C482.308 1413.18 477.257 1414.43 471.239 1415.12C465.221 1415.81 458.353 1415.92 451.033 1415.45C443.713 1414.98 436.084 1413.93 428.586 1412.38C421.088 1410.82 413.869 1408.78 407.345 1406.38C400.822 1403.98 395.122 1401.26 390.574 1398.38C386.027 1395.5 382.722 1392.51 380.849 1389.6C378.976 1386.68 378.574 1383.89 379.663 1381.39C380.646 1378.86 383.104 1376.66 386.896 1374.92C390.688 1373.18 395.738 1371.93 401.756 1371.25C407.775 1370.56 414.642 1370.45 421.962 1370.92C429.283 1371.39 436.912 1372.43 444.409 1373.99C451.907 1375.54 459.126 1377.58 465.65 1379.98C472.174 1382.39 477.874 1385.11 482.421 1387.99C486.968 1390.87 490.274 1393.85 492.146 1396.77C494.019 1399.69 494.422 1402.48 493.332 1404.98Z" fill="#989898"/>
</g>
<g opacity="0.81776" filter="url(#filter2_f_0_1)">
<path d="M294.026 1399.22C294.067 1401.89 292.974 1404.54 290.81 1407.01C288.647 1409.48 285.456 1411.73 281.42 1413.62C277.384 1415.52 272.585 1417.02 267.297 1418.04C262.009 1419.07 256.338 1419.6 250.611 1419.6C244.883 1419.6 239.212 1419.07 233.924 1418.04C228.637 1417.02 223.837 1415.52 219.801 1413.62C215.766 1411.73 212.574 1409.48 210.411 1407.01C208.247 1404.54 207.154 1401.89 207.195 1399.22C207.154 1396.55 208.247 1393.91 210.411 1391.44C212.574 1388.96 215.766 1386.72 219.801 1384.82C223.837 1382.93 228.637 1381.43 233.924 1380.4C239.212 1379.37 244.883 1378.85 250.611 1378.85C256.338 1378.85 262.009 1379.37 267.297 1380.4C272.585 1381.43 277.384 1382.93 281.42 1384.82C285.456 1386.72 288.647 1388.96 290.81 1391.44C292.974 1393.91 294.067 1396.55 294.026 1399.22Z" fill="#989898"/>
</g>
<path d="M435.329 1396.88L442.749 1390.78L446.177 1379.36C446.177 1379.36 461.876 1377.42 466.128 1373.86C477.762 1364.13 477.549 1363.42 481.627 1356.96C486.491 1349.25 494.029 1336.05 491.856 1331.61C466 1328.46 462.986 1341.45 462.986 1341.45L439.973 1350.09L420.758 1337.97L421.118 1314.38C421.118 1314.38 390.651 1328.29 393.078 1338.44C381.697 1337.51 370.316 1342.41 370.316 1342.41C370.316 1342.41 365.161 1331.71 360.11 1329.68C356.468 1328.21 350.472 1327.85 348.425 1331.19C345.827 1335.44 349.486 1342.26 353.479 1345.24C357.55 1348.27 365.592 1344.58 365.592 1344.58C365.592 1344.58 358.926 1343.74 355.069 1341.21C352.973 1339.84 351.019 1334.18 351.019 1334.18C351.019 1334.18 356.746 1333.01 359.1 1334.32C362.692 1336.31 365.77 1344.67 365.77 1344.67L386.819 1359.75L409.218 1387.27L414.135 1390.76L435.329 1396.88Z" fill="url(#paint2_linear_0_1)" stroke="#962A2A" stroke-width="3.5485" stroke-linejoin="round"/>
<path d="M433.021 1403.91L442.068 1404.75L455.972 1395.72L454.966 1389.7L453.459 1385.86L462.672 1387.86C462.672 1387.86 481.002 1375.95 486.963 1367.13C492.86 1358.42 495.972 1343.72 497.039 1337.23C498.105 1330.74 493.214 1331.94 493.214 1331.94L489.349 1336.23L481.268 1360.11L467.531 1369.14L449.103 1380.17L433.691 1393.55L433.021 1401.9L433.021 1403.91Z" fill="#5D0300"/>
<path d="M418.64 1393.36C418.64 1393.36 436.963 1383.05 444.889 1378.16C451.742 1373.93 459.239 1369.69 465.221 1365.11C470.051 1361.41 474.254 1356.89 478.076 1352.16C481.712 1347.66 482.14 1348.45 484.233 1343.05C485.976 1337.98 492.95 1332.84 492.95 1332.84C492.95 1332.84 487.746 1355.91 483.625 1362.23C479.463 1368.45 473.025 1372.91 466.889 1377.21C464.176 1379.1 461.439 1381.77 458.128 1381.89C454.027 1382.03 447.96 1378.54 447.96 1378.54L449.998 1391.57L433.118 1401.94L418.64 1393.36Z" fill="#B52722" stroke="#930000" stroke-width="3.5485" stroke-linejoin="round"/>
<path d="M221.449 1417.3C230.123 1417.4 237.938 1418.73 245.614 1414.7C247.888 1413.5 250.927 1411.96 253.122 1409.57C255.317 1407.17 256.668 1403.93 257.934 1401.7C259.538 1398.87 260.303 1392.24 260.303 1392.24C260.303 1392.24 259.651 1396.77 261.251 1396.97C263.846 1397.28 264.136 1392.45 264.567 1389.87C265.066 1386.9 263.62 1380.89 263.62 1380.89L229.03 1379L219.08 1386.56L211.498 1404.06C211.498 1404.06 211.587 1412.32 214.104 1415.17C216.134 1417.46 218.383 1417.26 221.449 1417.3Z" fill="#B52722" stroke="#930000" stroke-width="3"/>
<path d="M211.32 1392.83C210.741 1399.69 208.743 1408.35 216 1410.68C222.031 1412.62 237.491 1412.84 243.008 1409.73C244.907 1408.66 249.245 1407.41 252.466 1403.91C255.687 1400.42 257.791 1394.68 259.241 1391.35C262.142 1384.67 261.96 1377.11 261.96 1377.11C261.96 1377.11 257.46 1373.52 257.222 1367.18C257.071 1363.15 262.117 1349.43 262.377 1345.41C262.686 1340.62 263.597 1337.61 263.057 1332.84C262.264 1325.83 264.549 1329.08 261.487 1322.73C259.464 1318.54 253.767 1315.34 249.167 1316.11C226.473 1319.91 247.493 1301.59 244.376 1301.34C224.485 1299.73 259.209 1321.61 228.319 1316.11C224.336 1315.4 221.267 1321.57 220.737 1325.57C220.016 1331.03 221.76 1335.87 222.01 1341.37C226.338 1352.53 225.875 1362.36 226.423 1368.6C225.499 1373.75 224.878 1378.98 221.891 1383.29C219.601 1386.59 211.656 1388.82 211.319 1392.83L211.32 1392.83Z" fill="url(#paint3_linear_0_1)" stroke="#962A2A" stroke-width="3"/>
<path d="M222.01 1390.63C222.01 1390.63 227.489 1387.1 232.747 1387.7C238.006 1388.29 239.258 1390.16 239.258 1390.16" stroke="#953737" stroke-width="3" stroke-linejoin="round"/>
<path d="M231.168 1382.05C231.168 1382.05 221.333 1379.91 235.219 1379.67C249.105 1379.42 241.73 1382.13 241.73 1382.13" stroke="#953737" stroke-width="3" stroke-linejoin="round"/>
<path d="M235.196 1376.75C235.196 1376.75 225.36 1374.95 239.246 1374.7C253.132 1374.46 245.757 1377.17 245.757 1377.17" stroke="#953737" stroke-width="3" stroke-linejoin="round"/>
<path d="M220.146 1325.12C220.146 1325.12 226.065 1321.21 241.292 1334C258.193 1323.73 262.568 1326.16 262.568 1326.16" stroke="#953737" stroke-width="3" stroke-linejoin="round"/>
<path d="M226.532 1337.57C226.532 1337.57 228.431 1336.33 241.981 1344.45C249.836 1337.85 257.227 1339.28 257.227 1339.28" fill="url(#paint4_linear_0_1)"/>
<path d="M226.532 1337.57C226.532 1337.57 228.431 1336.33 241.981 1344.45C249.836 1337.85 257.227 1339.28 257.227 1339.28" stroke="#953737" stroke-width="3" stroke-linejoin="round"/>
<path d="M414.7 1346.02C414.7 1346.02 417.184 1347.05 418.751 1344.44C420.317 1341.84 420.287 1338.63 420.287 1338.63" stroke="#953737" stroke-width="3" stroke-linejoin="round"/>
<path d="M440.358 1355.92C440.358 1355.92 442.2 1352.38 443.068 1350.99C443.937 1349.59 448.132 1346.43 448.132 1346.43" stroke="#953737" stroke-width="3" stroke-linecap="round" stroke-linejoin="round"/>
<path d="M445.883 1353.49C445.883 1353.49 447.725 1349.94 448.594 1348.55C449.463 1347.16 453.657 1343.99 453.657 1343.99" stroke="#953737" stroke-width="3" stroke-linecap="round" stroke-linejoin="round"/>
<path opacity="0.63084" d="M375.224 1349.08L386.281 1357.44L392.981 1364.29L405.043 1379.67L410.571 1386.36L415.094 1389.2L419.785 1390.54L429.501 1385.02L433.186 1381.01L412.748 1355.1L387.118 1340.22L375.057 1341.56L369.528 1343.06L367.853 1344.4L375.224 1349.08Z" fill="url(#paint5_linear_0_1)"/>
<path d="M222.949 1322.66C222.949 1322.66 232.194 1324.05 241.209 1332.02C250.894 1326.46 260.642 1324 260.642 1324L252.602 1318.32L244.058 1319.16L230.489 1318.65L222.949 1322.66Z" fill="url(#paint6_linear_0_1)"/>
</g>
<defs>
<filter id="filter0_f_0_1" x="273.838" y="1344.58" width="217.495" height="68.8366" filterUnits="userSpaceOnUse" color-interpolation-filters="sRGB">
<feFlood flood-opacity="0" result="BackgroundImageFix"/>
<feBlend mode="normal" in="SourceGraphic" in2="BackgroundImageFix" result="shape"/>
<feGaussianBlur stdDeviation="7.20895" result="effect1_foregroundBlur_0_1"/>
</filter>
<filter id="filter1_f_0_1" x="367.543" y="1359.11" width="137.909" height="68.1475" filterUnits="userSpaceOnUse" color-interpolation-filters="sRGB">
<feFlood flood-opacity="0" result="BackgroundImageFix"/>
<feBlend mode="normal" in="SourceGraphic" in2="BackgroundImageFix" result="shape"/>
<feGaussianBlur stdDeviation="5.7612" result="effect1_foregroundBlur_0_1"/>
</filter>
<filter id="filter2_f_0_1" x="197.321" y="1368.97" width="106.579" height="60.4988" filterUnits="userSpaceOnUse" color-interpolation-filters="sRGB">
<feFlood flood-opacity="0" result="BackgroundImageFix"/>
<feBlend mode="normal" in="SourceGraphic" in2="BackgroundImageFix" result="shape"/>
<feGaussianBlur stdDeviation="4.9365" result="effect1_foregroundBlur_0_1"/>
</filter>
<linearGradient id="paint0_linear_0_1" x1="33.7218" y1="592.793" x2="1406.19" y2="592.793" gradientUnits="userSpaceOnUse">
<stop stop-color="#E82C2C"/>
<stop offset="0.0392157" stop-color="#CC0202"/>
<stop offset="0.478431" stop-color="#8F0707"/>
<stop offset="0.921569" stop-color="#CC0202"/>
<stop offset="1" stop-color="#EB5555"/>
</linearGradient>
<linearGradient id="paint1_linear_0_1" x1="394.5" y1="3776" x2="1806" y2="3801" gradientUnits="userSpaceOnUse">
<stop stop-color="#46BE1C"/>
<stop offset="0.333333" stop-color="#C4D5BE" stop-opacity="0.140625"/>
<stop offset="0.666667" stop-color="#7E0202" stop-opacity="0.140625"/>
<stop offset="1" stop-color="#D9D9D9" stop-opacity="0"/>
</linearGradient>
<linearGradient id="paint2_linear_0_1" x1="390.204" y1="1380.23" x2="467.153" y2="1345.29" gradientUnits="userSpaceOnUse">
<stop stop-color="#B42F08"/>
<stop offset="1" stop-color="#F55656"/>
</linearGradient>
<linearGradient id="paint3_linear_0_1" x1="239.374" y1="1358.02" x2="225.819" y2="1398.83" gradientUnits="userSpaceOnUse">
<stop stop-color="#B42F08"/>
<stop offset="1" stop-color="#EA4040"/>
</linearGradient>
<linearGradient id="paint4_linear_0_1" x1="242.646" y1="1344.12" x2="242.397" y2="1335.61" gradientUnits="userSpaceOnUse">
<stop stop-color="#A01510"/>
<stop offset="1" stop-color="#D0201A" stop-opacity="0"/>
</linearGradient>
<linearGradient id="paint5_linear_0_1" x1="400.356" y1="1373.15" x2="414.065" y2="1361.25" gradientUnits="userSpaceOnUse">
<stop stop-color="#575757" stop-opacity="0.66087"/>
<stop offset="1" stop-color="#989898" stop-opacity="0"/>
</linearGradient>
<linearGradient id="paint6_linear_0_1" x1="241.243" y1="1330.19" x2="241.176" y2="1321" gradientUnits="userSpaceOnUse">
<stop stop-color="#513737" stop-opacity="0.75652"/>
<stop offset="1" stop-color="#989898" stop-opacity="0"/>
</linearGradient>
<clipPath id="clip0_0_1">
<rect width="1440" height="4203" fill="white"/>
</clipPath>
<clipPath id="clip1_0_1">
<rect width="287.4" height="399.7" fill="white" transform="translate(903 1040)"/>
</clipPath>
</defs>
</svg>
